<svg width="315" height="316" viewBox="0 0 315 316" fill="none" xmlns="http://www.w3.org/2000/svg">
<g clip-path="url(#clip0)">
<ellipse cx="145.88" cy="150.5" rx="126" ry="136.5" fill="#FFFF77"/>
<path d="M255.03 311.382C206.397 310.427 189.88 247.148 153.254 234.645C116.628 222.143 103.598 286.648 94.4391 275.977C69.1804 246.55 124.992 176.312 186.574 218.101C248.155 259.89 374.992 313.737 255.03 311.382Z" fill="#FFFF77"/>
<path d="M216.387 234.44C238.934 219.808 255.84 199.362 264.536 176.209C273.232 153.056 273.242 128.463 264.566 106.165C255.889 83.8674 245.415 57.4126 222.88 45L145.714 147.037L62.8798 52.6725C41.9216 69.0713 29.7562 104.592 23.5953 128.25C17.4345 151.907 20.1242 176.253 31.2556 197.589C42.3871 218.925 61.3518 236.083 85.2677 246.457L145.714 147.037L216.387 234.44Z" fill="#0755FF"/>
<path d="M74.8798 211C45.1061 212.615 36.8798 177 36.8798 163C35.339 134.599 50.8798 93 62.8798 93L117.565 148.424L74.8798 211Z" fill="white"/>
<path d="M220.298 201.231C250.107 199.613 254.395 157.561 252.88 143.643C251.339 115.242 231.412 81.3256 219.469 82.6246L171.039 143.643L220.298 201.231Z" fill="white"/>
</g>
<defs>
<clipPath id="clip0">
<rect width="315" height="316" fill="white"/>
</clipPath>
</defs>
</svg>
